<?xml version="1.0" standalone="no"?>
<!DOCTYPE svg PUBLIC "-//W3C//DTD SVG 20010904//EN"
 "http://www.w3.org/TR/2001/REC-SVG-20010904/DTD/svg10.dtd">
<svg version="1.0" xmlns="http://www.w3.org/2000/svg"
 width="628.000000pt" height="627.000000pt" viewBox="0 0 628.000000 627.000000"
 preserveAspectRatio="xMidYMid meet">

<g transform="translate(0.000000,627.000000) scale(0.100000,-0.100000)"
fill="#000000" stroke="none">
<path d="M0 3135 l0 -3135 3140 0 3140 0 0 3135 0 3135 -3140 0 -3140 0 0
-3135z m3733 2090 c245 -52 528 -302 792 -700 289 -437 488 -933 550 -1373 24
-167 17 -386 -15 -487 -50 -158 -141 -271 -255 -315 -71 -27 -190 -32 -275
-12 -47 12 -104 11 -380 -2 -361 -18 -651 -39 -870 -64 l-145 -17 -17 -105
c-21 -124 -30 -146 -95 -225 l-50 -60 5 -71 4 -72 125 -68 c74 -40 135 -81
149 -99 32 -42 104 -251 104 -303 0 -70 -59 -158 -117 -176 -32 -10 -616 -97
-688 -103 -88 -7 -109 3 -235 110 -99 85 -123 116 -144 192 -8 28 -58 201
-111 385 l-97 336 -39 1 c-55 3 -108 31 -138 74 -21 30 -33 38 -58 39 -66 0
-186 30 -251 62 -42 21 -90 56 -128 94 -171 170 -189 430 -45 642 37 55 39 61
30 101 -11 48 0 100 29 143 10 15 112 100 228 189 468 362 594 468 809 684
357 356 804 864 861 977 59 117 166 206 274 228 57 12 121 11 193 -5z"/>
<path d="M3519 5042 c-55 -35 -90 -78 -119 -146 -43 -102 -716 -850 -1010
-1123 -138 -129 -363 -312 -715 -582 -88 -68 -164 -127 -169 -132 -5 -4 5 -36
21 -72 l30 -64 -53 -46 c-35 -32 -64 -69 -86 -114 -30 -60 -33 -77 -33 -153 0
-73 4 -93 28 -142 55 -112 167 -181 297 -182 41 -1 92 3 112 7 l37 8 36 -71
c19 -38 36 -70 38 -70 1 0 35 9 75 19 40 11 75 15 78 10 3 -5 63 -212 134
-459 123 -427 131 -452 162 -478 18 -15 54 -46 82 -69 30 -26 60 -43 75 -43
46 -1 636 92 646 101 6 6 -3 46 -24 109 l-32 100 -138 75 c-76 42 -146 82
-156 89 -14 10 -19 38 -25 161 l-8 148 67 82 67 82 23 139 c12 76 25 148 28
160 4 20 18 23 186 43 319 38 623 60 1094 81 211 10 249 9 294 -5 29 -8 73
-15 98 -15 45 0 120 27 144 52 36 37 69 91 89 144 20 53 22 78 22 249 1 158
-3 209 -22 301 -133 661 -570 1429 -977 1719 -101 73 -183 106 -273 112 -73 4
-80 3 -123 -25z m231 -45 c346 -142 786 -770 1005 -1432 130 -391 158 -726 76
-901 -39 -84 -84 -117 -165 -122 -117 -7 -265 75 -426 237 -386 387 -731 1082
-815 1642 -17 114 -20 292 -5 370 17 89 64 174 113 204 56 33 139 34 217 2z
m-1685 -2231 c124 -257 225 -469 223 -470 -2 -1 -78 -20 -169 -42 l-166 -41
-196 408 c-108 225 -197 412 -197 416 1 13 265 212 272 205 4 -4 109 -218 233
-476z m670 -437 c4 -11 5 -23 2 -25 -2 -2 -57 -20 -121 -38 -65 -19 -119 -36
-122 -39 -8 -7 8 -37 20 -37 6 0 58 14 115 30 57 17 105 29 106 28 1 -2 5 -42
9 -90 l6 -87 -67 -20 c-38 -11 -90 -26 -118 -34 -38 -11 -51 -19 -53 -35 -4
-29 11 -28 133 8 54 16 101 28 102 26 2 -2 8 -95 14 -207 7 -124 16 -209 23
-216 6 -7 61 -39 121 -72 61 -34 108 -61 105 -62 -3 -1 -70 -4 -150 -8 l-145
-7 -73 -40 c-65 -36 -71 -42 -59 -58 13 -17 17 -16 83 17 l69 35 178 3 179 4
24 -64 c13 -35 23 -65 22 -66 -2 -1 -138 -23 -302 -48 l-300 -45 -73 61 c-40
34 -75 68 -78 77 -2 8 -58 204 -124 435 -66 231 -123 428 -126 437 -5 14 28
24 232 73 131 32 261 63 288 70 69 18 73 18 80 -6z"/>
<path d="M3684 4846 c-135 -61 -138 -346 -10 -743 174 -534 535 -1109 796
-1268 52 -32 77 -40 125 -43 55 -4 64 -1 94 24 19 15 40 44 49 64 97 231 -86
862 -399 1380 -256 421 -512 651 -655 586z"/>
</g>
</svg>
